<?xml version="1.0" standalone="no"?>
<!DOCTYPE svg PUBLIC "-//W3C//DTD SVG 20010904//EN"
 "http://www.w3.org/TR/2001/REC-SVG-20010904/DTD/svg10.dtd">
<svg version="1.0" xmlns="http://www.w3.org/2000/svg"
 width="1280.000000pt" height="929.000000pt" viewBox="0 0 1280.000000 929.000000"
 preserveAspectRatio="xMidYMid meet">
<metadata>
Created by potrace 1.15, written by Peter Selinger 2001-2017
</metadata>
<g transform="translate(0.000000,929.000000) scale(0.100000,-0.100000)"
fill="#000000" stroke="none">
<path d="M10410 9270 c-29 -29 -26 -74 6 -99 15 -12 31 -21 36 -21 17 0 245
-88 373 -145 464 -205 733 -383 1042 -690 192 -190 230 -249 432 -655 224
-450 306 -687 356 -1019 9 -57 21 -101 31 -112 36 -40 114 -9 114 45 0 46 -41
262 -71 376 -72 269 -131 415 -335 822 -188 373 -228 433 -428 634 -278 278
-498 434 -868 620 -217 108 -598 264 -648 264 -11 0 -29 -9 -40 -20z"/>
<path d="M2380 9214 c-434 -127 -873 -327 -1150 -522 -192 -135 -400 -317
-489 -426 -86 -106 -127 -171 -293 -459 -224 -388 -317 -594 -394 -875 -64
-235 -65 -282 -8 -282 30 0 35 11 73 170 48 200 105 361 198 560 58 123 343
623 415 726 168 244 534 536 910 725 207 104 553 238 773 299 108 30 137 57
99 94 -20 21 -33 20 -134 -10z"/>
<path d="M5840 9149 c-856 -33 -1652 -191 -2315 -459 -268 -108 -620 -294
-839 -441 -727 -493 -1212 -1165 -1405 -1949 -68 -277 -95 -500 -95 -800 0
-234 9 -315 55 -495 76 -299 247 -631 464 -901 491 -611 1304 -1151 2355
-1566 1101 -435 2416 -701 3644 -736 l230 -7 216 -865 c119 -476 222 -875 228
-886 27 -51 107 -53 144 -3 10 14 103 369 228 869 116 465 215 861 220 880 8
30 20 41 82 74 691 371 1588 1106 2045 1673 167 208 282 430 388 750 183 554
242 1171 159 1673 -150 906 -754 1713 -1713 2290 -1062 638 -2525 960 -4091
899z m725 -179 c1231 -52 2294 -323 3150 -803 678 -379 1190 -879 1484 -1449
81 -156 106 -215 167 -393 198 -576 178 -1286 -55 -1992 -139 -421 -274 -628
-669 -1027 -509 -513 -1148 -1002 -1693 -1294 -52 -28 -103 -60 -113 -71 -12
-13 -80 -265 -201 -748 -173 -691 -183 -726 -193 -688 -6 22 -88 348 -182 725
-94 377 -178 695 -186 707 -7 12 -31 26 -51 32 -21 5 -162 12 -313 15 -1414
30 -2976 397 -4185 986 -1301 632 -2063 1456 -2155 2332 -31 295 15 719 116
1070 102 357 293 724 533 1028 104 130 372 399 506 506 443 354 968 617 1606
803 699 203 1574 297 2434 261z"/>
<path d="M10340 8816 c-28 -35 -8 -59 95 -114 302 -163 546 -356 811 -643 253
-273 360 -417 515 -694 220 -394 341 -719 398 -1074 19 -112 27 -131 62 -131
36 0 43 26 31 114 -25 188 -91 433 -176 649 -98 252 -328 670 -474 862 -138
181 -441 503 -602 640 -162 137 -388 289 -557 374 -70 35 -85 37 -103 17z"/>
<path d="M2394 8726 c-209 -89 -468 -243 -650 -387 -232 -184 -550 -499 -686
-679 -205 -275 -392 -591 -494 -837 -79 -188 -170 -495 -162 -544 2 -12 15
-31 30 -42 51 -38 96 -4 113 88 14 81 76 278 124 398 86 217 160 353 327 608
151 232 234 339 379 488 372 382 703 625 1069 783 143 61 173 96 126 146 -30
31 -61 27 -176 -22z"/>
<path d="M1360 3930 c-14 -26 11 -78 103 -215 204 -305 399 -507 785 -813 218
-173 446 -305 787 -457 327 -145 676 -239 967 -261 103 -7 128 0 128 37 0 34
-26 46 -121 53 -289 22 -618 111 -940 254 -295 131 -484 235 -662 366 -113 82
-339 268 -432 355 -176 165 -354 381 -482 586 -56 89 -74 111 -95 113 -19 2
-30 -3 -38 -18z"/>
</g>
</svg>
